<svg viewBox="0 0 250 55" fill="none" xmlns="http://www.w3.org/2000/svg"><path d="M25.645 42.244c0 .217 0 .434-.031.644L5.762 54.35a1.267 1.267 0 0 1-1.906-1.103V39.633a1.917 1.917 0 0 1 .955-1.656L14.82 32.2l7.894 4.55.039.029a6.585 6.585 0 0 1 2.891 5.464Z" fill="#84EAC8"/><path d="M30.323 3.776 28.206 11.8c-.13.49-.45.91-.888 1.165l-8.269 4.779-7.884-4.551-.046-.031a6.607 6.607 0 0 1-2.873-5.465c0-.213 0-.43.035-.644L19.999.258A1.897 1.897 0 0 1 21.45.066l7.975 2.153a1.268 1.268 0 0 1 .898 1.557Z" fill="#FF8496"/><path d="M33.89 32.201a10.16 10.16 0 0 1-1.787 5.804 9.705 9.705 0 0 1-1.255 1.48 10.256 10.256 0 0 1-1.951 1.495l-1.294.746-1.99 1.162a6.595 6.595 0 0 0-2.86-6.105l-.038-.028-7.894-4.55-9.723-5.601a10.41 10.41 0 0 1-2.241-1.75A10.078 10.078 0 0 1 0 17.753c0-.402.022-.804.067-1.204a10.114 10.114 0 0 1 5-7.62l3.212-1.853c-.02.214-.035.431-.035.644a6.616 6.616 0 0 0 2.874 5.454l.046.032 7.884 4.55 9.74 5.63c.175.098.333.196.483.294.45.293.876.62 1.276.976l.066.056a10.183 10.183 0 0 1 3.276 7.488ZM63.744 31.36c0 3.046-2.178 6.04-7.29 6.04-3.657 0-6.926-1.51-7.877-4.754l3.66-1.145c.28 1.117 1.452 2.573 4.196 2.573 1.955 0 3.517-.756 3.517-2.45 0-1.957-2.206-2.1-5.303-2.854-3.94-.98-5.245-2.965-5.245-5.677 0-3.69 2.822-5.983 6.898-5.983 3.27 0 5.836 1.62 6.675 4.614l-3.685.896c-.224-1.05-1.231-2.18-3.185-2.18-1.62 0-2.958.836-2.958 2.404 0 2.209 2.482 2.513 4.3 2.933 4.622 1.082 6.297 2.423 6.297 5.584ZM78.267 28.48v8.555H74.72v-1.508c-.671 1.092-2.234 1.872-4.133 1.872-2.122 0-5.027-1.144-5.027-4.165 0-4.67 5.754-4.67 7.625-4.67h1.535c-.028-2.04-.755-2.937-2.934-2.937a5.524 5.524 0 0 0-2.957 1.05l-2.448-1.845a8.494 8.494 0 0 1 5.891-2.293c4.514-.014 5.996 2.56 5.996 5.941ZM74.72 30.8h-.224c-2.542 0-5.304-.027-5.304 2.101 0 1.05.7 1.929 2.448 1.929 1.818 0 2.765-1.033 3.073-1.62l.007-2.41ZM102.031 28.172v8.863h-3.545V28.9c0-1.75-.727-2.937-2.374-2.937-1.647 0-2.514 1.316-2.514 2.937v8.136h-3.545V28.9c0-1.75-.727-2.937-2.374-2.937-1.647 0-2.514 1.316-2.514 2.937v8.136h-3.548V22.861h3.548v1.508c.724-1.05 1.87-1.844 3.741-1.844 1.927 0 3.185.892 3.91 2.236a5.005 5.005 0 0 1 4.275-2.236c3.266 0 4.94 2.674 4.94 5.646ZM119.432 22.862v12.637c0 3.97-2.653 7.186-7.692 7.186-2.905 0-5.531-1.204-6.705-2.853l2.877-1.704c.531.7 1.815 1.4 3.717 1.4 2.734 0 4.244-1.509 4.244-4.278v-1.032c-.867 1.228-2.262 2.18-4.468 2.18-4.273 0-6.87-3.273-6.87-6.934 0-3.662 2.597-6.935 6.87-6.935 2.206 0 3.601.949 4.468 2.18v-1.844l3.559-.003Zm-3.713 6.598c0-2.069-1.398-3.777-3.772-3.777-2.29 0-3.769 1.652-3.769 3.777s1.479 3.791 3.769 3.791c2.374 0 3.772-1.722 3.772-3.79ZM136.889 29.96a7.486 7.486 0 0 1-4.577 6.943 7.464 7.464 0 0 1-8.156-1.586 7.487 7.487 0 0 1 1.096-11.52 7.466 7.466 0 0 1 4.152-1.271 7.333 7.333 0 0 1 5.314 2.13 7.347 7.347 0 0 1 2.171 5.304Zm-8.52-11.044a1.912 1.912 0 0 1-1.167 1.78 1.902 1.902 0 0 1-2.093-.417 1.934 1.934 0 0 1-.565-1.363 1.9 1.9 0 0 1 .569-1.35 1.907 1.907 0 0 1 1.357-.55 1.885 1.885 0 0 1 1.759 1.17c.095.232.142.48.14.73Zm4.895 11.045c0-2.209-1.479-4.026-3.846-4.026s-3.825 1.817-3.825 4.026c0 2.209 1.479 4.029 3.825 4.029s3.839-1.82 3.839-4.03h.007Zm1.048-11.044a1.925 1.925 0 0 1-1.923 1.925 1.925 1.925 0 1 1 1.36-3.287c.361.361.563.85.563 1.361ZM152.248 28.424v8.611h-3.545v-7.883c0-1.817-.755-3.189-2.766-3.189-2.097 0-3.017 1.565-3.017 3.189v7.883h-3.517V22.862h3.517v1.732c.783-1.148 2.066-2.069 4.133-2.069 3.576 0 5.195 2.906 5.195 5.899ZM169.659 22.862v12.637c0 3.97-2.653 7.186-7.691 7.186-2.906 0-5.532-1.204-6.703-2.853l2.878-1.704c.528.7 1.814 1.4 3.713 1.4 2.737 0 4.244-1.509 4.244-4.278v-1.032c-.864 1.228-2.262 2.18-4.468 2.18-4.273 0-6.87-3.273-6.87-6.934 0-3.662 2.597-6.935 6.87-6.935 2.206 0 3.604.949 4.468 2.18v-1.844l3.559-.003Zm-3.716 6.598c0-2.069-1.399-3.777-3.769-3.777-2.29 0-3.769 1.652-3.769 3.777s1.465 3.791 3.758 3.791c2.374 0 3.769-1.722 3.769-3.79h.011ZM185.847 22.862v14.173h-3.548v-1.732c-.78 1.176-2.039 2.1-4.105 2.1-3.573 0-5.195-2.909-5.195-5.898v-8.643h3.548v7.883c0 1.817.752 3.189 2.738 3.189 2.122 0 3.014-1.54 3.014-3.19v-7.882h3.548ZM200.035 32.674c0 2.8-2.038 4.726-6.007 4.726-2.706 0-5.443-1.09-6.087-3.466l3.409-1.05c.109.588.668 1.536 2.734 1.536 1.483 0 2.318-.528 2.318-1.48 0-1.341-2.038-1.285-3.713-1.649-2.737-.56-4.132-1.873-4.132-4.306 0-2.685 2.234-4.445 5.555-4.445 2.448 0 4.832 1.2 5.419 3.661l-3.213.784c-.167-.728-.863-1.456-2.206-1.456-1.049 0-2.097.392-2.097 1.456 0 1.257 1.898 1.341 3.017 1.593 3.465.742 5.003 1.69 5.003 4.096ZM206.57 26.103v5.174c0 1.62.224 2.573 2.178 2.573.252 0 .587-.028.839-.056v3.242c-.48.145-.981.212-1.482.195-3.629 0-5.08-2.432-5.08-5.366v-5.762h-2.014v-3.241h2.014v-2.965h3.545v2.965h3.017v3.241h-3.017ZM226.341 29.96a7.487 7.487 0 0 1-4.578 6.943 7.463 7.463 0 0 1-8.157-1.587 7.481 7.481 0 0 1-1.647-8.155 7.465 7.465 0 0 1 6.9-4.636 7.33 7.33 0 0 1 5.312 2.133 7.361 7.361 0 0 1 2.17 5.303Zm-3.629 0c0-2.208-1.479-4.025-3.846-4.025s-3.846 1.817-3.846 4.026c0 2.209 1.482 4.029 3.846 4.029 2.363 0 3.846-1.82 3.846-4.03ZM233.131 22.862h3.041v3.241h-3.041v10.932h-3.549V26.103H227.6v-3.241h1.982c0-2.91 1.287-5.762 5.112-5.762.495-.014.991.023 1.478.112v2.965c-.192 0-.388-.028-.611-.028-1.815 0-2.43.976-2.43 2.713ZM250 28.48v8.555h-3.549v-1.508c-.671 1.092-2.234 1.872-4.132 1.872-2.123 0-5.028-1.144-5.028-4.165 0-4.67 5.755-4.67 7.625-4.67h1.535c-.028-2.04-.755-2.937-2.933-2.937a5.523 5.523 0 0 0-2.958 1.05l-2.447-1.845a8.493 8.493 0 0 1 5.891-2.293c4.514-.014 5.996 2.56 5.996 5.941Zm-3.549 2.32h-.224c-2.541 0-5.303-.027-5.303 2.101 0 1.05.699 1.929 2.447 1.929 1.818 0 2.766-1.033 3.073-1.62l.007-2.41Z" fill="#000070"/></svg>